<?xml version="1.0" ?><!DOCTYPE svg  PUBLIC '-//W3C//DTD SVG 1.1//EN'  'http://www.w3.org/Graphics/SVG/1.1/DTD/svg11.dtd'><svg enable-background="new 0 0 512 512" height="512px" id="Layer_1" version="1.1" viewBox="0 0 512 512" width="512px" xml:space="preserve" xmlns="http://www.w3.org/2000/svg" xmlns:xlink="http://www.w3.org/1999/xlink"><g><polyline fill="#9C57A3" points="-1,513 512,513 512,0 -1,0 -1,513  "/><polyline fill="#010101" opacity="0.102" points="401.785,240.469 135.266,240.469 118.42,261.412 98.193,286.559 264.518,513    512,513 512,353.689 401.785,240.469  "/><path d="M294.802,226.195c-0.076,0.348-0.166,0.789-0.227,1.081l-2.63,12.306l2.766-12.965L294.802,226.195" fill="#5DA3C2"/><polyline fill="#5DA3C2" points="216.02,234.431 214.566,239.573 216.02,234.433 216.02,234.431  "/><path d="M98.037,286.73v-20.848c3.871,3.199,8.071,5.6,12.599,7.199c4.529,1.601,9.1,2.4,13.714,2.4   c2.713,0,5.081-0.259,7.104-0.772c2.021-0.515,3.709-1.225,5.065-2.132c1.359-0.907,2.369-1.976,3.033-3.204   c0.666-1.228,0.997-2.563,0.997-4.006c0-1.857-0.527-3.518-1.585-4.981c-1.057-1.464-2.5-2.818-4.329-4.06   c-1.827-1.244-3.995-2.444-6.501-3.602c-2.508-1.157-5.212-2.335-8.111-3.534c-7.399-3.102-12.914-6.894-16.542-11.379   c-3.628-4.485-5.443-9.899-5.443-16.243c0-4.971,1.003-9.241,3.01-12.812c2.008-3.571,4.743-6.515,8.207-8.828   c3.464-2.314,7.475-4.014,12.032-5.1c4.556-1.085,9.385-1.628,14.484-1.628c5.001,0,9.432,0.296,13.297,0.888   c3.864,0.594,7.424,1.505,10.681,2.732v19.692c-1.586-1.143-3.314-2.15-5.187-3.021c-1.87-0.872-3.799-1.592-5.785-2.163   c-1.985-0.572-3.957-0.993-5.914-1.266c-1.957-0.271-3.821-0.406-5.592-0.406c-2.415,0-4.614,0.243-6.599,0.729   c-1.985,0.485-3.661,1.171-5.025,2.058c-1.364,0.885-2.422,1.945-3.172,3.182c-0.75,1.235-1.125,2.617-1.125,4.146   c0,1.601,0.418,3.033,1.253,4.295c0.836,1.265,2.026,2.462,3.568,3.591c1.543,1.128,3.415,2.239,5.614,3.332   c2.2,1.092,4.685,2.208,7.458,3.354c3.785,1.599,7.185,3.299,10.198,5.1c3.014,1.799,5.6,3.83,7.758,6.095   c2.156,2.266,3.806,4.85,4.948,7.757c1.144,2.907,1.714,6.289,1.714,10.146c0,5.327-1.021,9.799-3.063,13.413   c-2.042,3.614-4.814,6.542-8.313,8.784c-3.5,2.244-7.57,3.854-12.213,4.832c-4.643,0.979-9.542,1.468-14.699,1.468   c-5.3,0-10.339-0.436-15.118-1.308C105.676,289.76,101.536,288.46,98.037,286.73" fill="#FFFFFF"/><path d="M227.37,252.168L217,219.898c-0.771-2.413-1.3-5.292-1.585-8.634h-0.557   c-0.186,2.828-0.764,5.607-1.736,8.335l-10.414,32.568H227.37 M262.939,290.566h-23.698l-6.108-19.198h-35.783l-6.15,19.198h-23.57   l35.162-95.995h25.797L262.939,290.566z" fill="#FFFFFF"/><path d="M270.824,286.73v-20.848c3.872,3.199,8.07,5.6,12.601,7.199c4.528,1.601,9.098,2.4,13.712,2.4   c2.716,0,5.082-0.259,7.104-0.772c2.021-0.515,3.711-1.225,5.067-2.132c1.357-0.907,2.367-1.976,3.03-3.204   c0.666-1.228,0.997-2.563,0.997-4.006c0-1.857-0.528-3.518-1.585-4.981s-2.5-2.818-4.327-4.06   c-1.829-1.244-3.996-2.444-6.503-3.602c-2.508-1.157-5.212-2.335-8.112-3.534c-7.397-3.102-12.911-6.894-16.541-11.379   c-3.628-4.485-5.442-9.899-5.442-16.243c0-4.971,1.005-9.241,3.012-12.812c2.006-3.571,4.74-6.515,8.207-8.828   c3.462-2.314,7.473-4.014,12.031-5.1c4.556-1.085,9.384-1.628,14.483-1.628c5,0,9.432,0.296,13.295,0.888   c3.865,0.594,7.427,1.505,10.684,2.732v19.692c-1.587-1.143-3.314-2.15-5.187-3.021c-1.872-0.872-3.8-1.592-5.786-2.163   c-1.985-0.572-3.955-0.993-5.915-1.266c-1.954-0.271-3.819-0.406-5.592-0.406c-2.413,0-4.612,0.243-6.599,0.729   c-1.985,0.485-3.661,1.171-5.025,2.058c-1.363,0.885-2.42,1.945-3.171,3.182c-0.749,1.235-1.125,2.617-1.125,4.146   c0,1.601,0.419,3.033,1.254,4.295c0.834,1.265,2.024,2.462,3.566,3.591c1.545,1.128,3.416,2.239,5.615,3.332   c2.199,1.092,4.686,2.208,7.457,3.354c3.783,1.599,7.184,3.299,10.199,5.1c3.014,1.799,5.6,3.83,7.757,6.095   c2.156,2.266,3.805,4.85,4.948,7.757c1.143,2.907,1.716,6.289,1.716,10.146c0,5.327-1.021,9.799-3.064,13.413   s-4.814,6.542-8.313,8.784c-3.502,2.244-7.572,3.854-12.214,4.832s-9.542,1.468-14.699,1.468c-5.301,0-10.339-0.436-15.117-1.308   C278.464,289.76,274.325,288.46,270.824,286.73" fill="#FFFFFF"/><path d="M347.62,286.73v-20.848c3.869,3.199,8.07,5.6,12.597,7.199c4.53,1.601,9.102,2.4,13.714,2.4   c2.715,0,5.083-0.259,7.104-0.772c2.022-0.515,3.711-1.225,5.067-2.132c1.355-0.907,2.368-1.976,3.031-3.204   c0.665-1.228,0.997-2.563,0.997-4.006c0-1.857-0.528-3.518-1.585-4.981c-1.058-1.464-2.5-2.818-4.328-4.06   c-1.829-1.244-3.997-2.444-6.505-3.602c-2.507-1.157-5.209-2.335-8.107-3.534c-7.4-3.102-12.915-6.894-16.544-11.379   c-3.627-4.485-5.44-9.899-5.44-16.243c0-4.971,1.003-9.241,3.01-12.812c2.006-3.571,4.741-6.515,8.207-8.828   c3.462-2.314,7.473-4.014,12.031-5.1c4.556-1.085,9.384-1.628,14.483-1.628c5,0,9.432,0.296,13.295,0.888   c3.863,0.594,7.426,1.505,10.682,2.732v19.692c-1.585-1.143-3.313-2.15-5.184-3.021c-1.871-0.872-3.801-1.592-5.785-2.163   c-1.986-0.572-3.959-0.993-5.916-1.266c-1.957-0.271-3.819-0.406-5.591-0.406c-2.414,0-4.614,0.243-6.601,0.729   c-1.984,0.485-3.659,1.171-5.023,2.058c-1.365,0.885-2.422,1.945-3.172,3.182c-0.75,1.235-1.126,2.617-1.126,4.146   c0,1.601,0.419,3.033,1.254,4.295c0.837,1.265,2.026,2.462,3.568,3.591c1.542,1.128,3.413,2.239,5.613,3.332   c2.199,1.092,4.686,2.208,7.456,3.354c3.786,1.599,7.186,3.299,10.199,5.1c3.014,1.799,5.602,3.83,7.758,6.095   c2.157,2.266,3.808,4.85,4.95,7.757c1.141,2.907,1.714,6.289,1.714,10.146c0,5.327-1.021,9.799-3.063,13.413   c-2.043,3.614-4.814,6.542-8.315,8.784c-3.499,2.244-7.571,3.854-12.214,4.832c-4.642,0.979-9.541,1.468-14.698,1.468   c-5.3,0-10.338-0.436-15.116-1.308C355.257,289.76,351.119,288.46,347.62,286.73" fill="#FFFFFF"/></g></svg>